<svg version="1.1" xmlns="http://www.w3.org/2000/svg" xmlns:xlink="http://www.w3.org/1999/xlink" width="500" height="500"><g data-paper-data="{&quot;description&quot;:&quot;Logo for yuejia-lai\n===================\n\nThis logo was generated by MarkMaker at http://emblemmatic.org/markmaker/ and may be composed of elements designed by others.\n\nThe font is Sanchez Italic designed by Daniel Hernandez and released under the OFL license via Google Fonts: https://www.google.com/fonts/specimen/Sanchez. The font includes this copyright statement: Copyright (c) 2012, LatinoType (luciano@latinotype.com), with Reserved Font Names 'Sanchez'\n\nMarkMaker uses semantic data from the Princeton University WordNet database http://wordnet.princeton.edu and font descriptions from Google Fonts https://www.google.com/fonts.&quot;}" fill="none" fill-rule="nonzero" stroke="none" stroke-width="none" stroke-linecap="butt" stroke-linejoin="miter" stroke-miterlimit="10" stroke-dasharray="" stroke-dashoffset="0" font-family="none" font-weight="none" font-size="none" text-anchor="none" style="mix-blend-mode: normal"><path d="M50,250c0,-110.45695 89.54305,-200 200,-200c110.45695,0 200,89.54305 200,200c0,110.45695 -89.54305,200 -200,200c-110.45695,0 -200,-89.54305 -200,-200z" fill="none" stroke="#4fb0b0" stroke-width="3.5"></path><g data-paper-data="{&quot;elementType&quot;:&quot;logo&quot;}" fill="#4fb0b0" stroke="none" stroke-width="1"><g data-paper-data="{&quot;elementType&quot;:&quot;text&quot;}"><g data-paper-data="{&quot;baseline&quot;:71.8,&quot;elementType&quot;:&quot;row&quot;}"><g data-paper-data="{&quot;baselineProportion&quot;:0.7542016806722689,&quot;fontSize&quot;:100,&quot;baseline&quot;:71.8,&quot;elementType&quot;:&quot;word&quot;}"><path d="M104.54275,267.27095c-0.49844,0 -0.87227,-0.13707 -1.12149,-0.41121c-0.24922,-0.27414 -0.4486,-0.76012 -0.59813,-1.45794l-7.32707,-29.08397h-4.11213c-0.64797,0 -0.92211,-0.29906 -0.82243,-0.89719l0.4486,-3.21494c0.09969,-0.59813 0.4486,-0.89719 1.04672,-0.89719h13.53265c0.64797,0 0.89719,0.29906 0.74766,0.89719l-0.37383,3.21494c-0.09969,0.59813 -0.47352,0.89719 -1.12149,0.89719h-2.99064l6.05605,25.34567h0.14953l12.48592,-25.34567h-3.36447c-0.59813,0 -0.84735,-0.29906 -0.74766,-0.89719l0.4486,-3.21494c0.09969,-0.59813 0.4486,-0.89719 1.04672,-0.89719h13.90648c0.59813,0 0.84735,0.29906 0.74766,0.89719l-0.37383,3.21494c-0.04984,0.59813 -0.42367,0.89719 -1.12149,0.89719h-4.11213l-18.54197,36.56057c-2.24298,4.43612 -4.38627,7.66351 -6.42988,9.6822c-2.0436,2.01868 -4.64795,3.02802 -7.81305,3.02802c-3.16509,0 -5.59499,-0.97196 -7.28968,-2.91587c-0.24922,-0.24922 -0.37383,-0.48598 -0.37383,-0.71028c0,-0.2243 0.09969,-0.43613 0.29906,-0.63551l2.24298,-2.39251c0.29906,-0.29906 0.72274,-0.34891 1.27102,-0.14953c1.2461,0.99688 2.65419,1.49532 4.22428,1.49532c1.57009,0 2.95326,-0.54828 4.14951,-1.64485c1.19626,-1.09657 2.51712,-3.04048 3.9626,-5.83175l2.76634,-5.53268z" data-paper-data="{&quot;elementType&quot;:&quot;letter&quot;,&quot;baseline&quot;:49.2,&quot;baselineProportion&quot;:0.6776859504132231,&quot;fontSize&quot;:100}"></path><path d="M144.09396,231.3085c1.94392,0 2.91587,0.7975 2.91587,2.39251c0,0.19938 -0.02492,0.4486 -0.07477,0.74766l-2.84111,19.66346c-0.09969,0.69782 -0.14953,1.37071 -0.14953,2.01868c0,1.89407 0.4486,3.43924 1.34579,4.63549c1.14641,1.64485 2.96572,2.46728 5.45792,2.46728c1.54516,0 3.01556,-0.39875 4.41119,-1.19626c1.39563,-0.7975 2.52958,-1.74454 3.40185,-2.84111c0.87227,-1.09657 1.63239,-2.21806 2.28036,-3.36447c1.19626,-2.19314 1.79438,-3.58877 1.79438,-4.1869l2.09345,-15.32703h-3.9626c-0.64797,0 -0.92211,-0.29906 -0.82243,-0.89719l0.52336,-3.21494c0.04984,-0.59813 0.37383,-0.89719 0.97196,-0.89719h9.27098c0.59813,0 0.87227,0.29906 0.82243,0.89719l-4.33643,30.87836h4.1869c0.54828,0 0.7975,0.29906 0.74766,0.89719l-0.4486,3.21494c-0.04984,0.59813 -0.39875,0.89719 -1.04672,0.89719h-6.50464c-1.94392,0 -2.91587,-0.7975 -2.91587,-2.39251c0,-0.19938 0.02492,-0.4486 0.07477,-0.74766l1.12149,-6.80371h-0.2243c-0.14953,0.74766 -0.62305,1.84423 -1.42055,3.2897c-0.7975,1.44548 -1.64485,2.62927 -2.54204,3.55138c-0.89719,0.92211 -2.16821,1.757 -3.81307,2.50466c-1.64485,0.74766 -3.46416,1.12149 -5.45792,1.12149c-3.98752,0 -6.97816,-1.17133 -8.97192,-3.514c-1.54516,-1.89407 -2.31775,-4.23674 -2.31775,-7.028c0,-0.7975 0.04984,-1.61993 0.14953,-2.46728l2.61681,-19.28963h-4.1869c-0.64797,0 -0.92211,-0.29906 -0.82243,-0.89719l0.52336,-3.21494c0.04984,-0.59813 0.37383,-0.89719 0.97196,-0.89719z" data-paper-data="{&quot;elementType&quot;:&quot;letter&quot;,&quot;baseline&quot;:49.2,&quot;baselineProportion&quot;:0.9859719438877755,&quot;fontSize&quot;:100}"></path><path d="M211.83196,250.4486h-26.91576c-0.04984,0.64797 -0.07477,1.29594 -0.07477,1.94392c0,3.19002 0.9595,5.81929 2.87849,7.88781c1.91899,2.06853 4.39873,3.10279 7.43922,3.10279c3.04048,0 5.7196,-0.64797 8.03734,-1.94392c2.31775,-1.29594 3.97506,-2.56697 4.97194,-3.81307c0.4486,-0.49844 0.89719,-0.57321 1.34579,-0.2243l1.79438,2.01868c0.4486,0.4486 0.47352,0.92211 0.07477,1.42055c-0.39875,0.49844 -1.00934,1.12149 -1.83177,1.86915c-0.82243,0.74766 -1.93145,1.59501 -3.32709,2.54204c-3.38939,2.24298 -7.37691,3.36447 -11.96256,3.36447c-4.58565,0 -8.37379,-1.4704 -11.36443,-4.41119c-2.99064,-2.9408 -4.48596,-6.75386 -4.48596,-11.4392c0,-4.68534 1.03426,-8.71024 3.10279,-12.07471c2.06853,-3.36447 4.64795,-5.85667 7.73828,-7.4766c3.09033,-1.61993 6.33019,-2.42989 9.71958,-2.42989c4.5358,0 8.06227,1.33333 10.57939,3.99998c2.51712,2.66665 3.77568,6.36757 3.77568,11.10275c0,3.04048 -0.49844,4.56073 -1.49532,4.56073M207.42076,244.61685c0,-2.4922 -0.72274,-4.59811 -2.16821,-6.31773c-1.44548,-1.71962 -3.66353,-2.57943 -6.65417,-2.57943c-2.99064,0 -5.66975,0.84735 -8.03734,2.54204c-2.36759,1.6947 -3.99998,4.23674 -4.89717,7.62613h21.68214c0.04984,-0.4486 0.07477,-0.87227 0.07477,-1.27102z" data-paper-data="{&quot;elementType&quot;:&quot;letter&quot;,&quot;baseline&quot;:49.900000000000006,&quot;baselineProportion&quot;:0.9861660079051383,&quot;fontSize&quot;:100}"></path><path d="M220.80388,236.31782c-0.59813,0 -0.84735,-0.29906 -0.74766,-0.89719l0.4486,-3.21494c0.09969,-0.59813 0.4486,-0.89719 1.04672,-0.89719h9.49528c0.54828,0 0.82243,0.19938 0.82243,0.59813c0,0.09969 -0.02492,0.19938 -0.07477,0.29906l-5.68222,40.6727c-0.59813,4.13705 -2.10591,7.28968 -4.52334,9.4579c-2.41743,2.16821 -5.33331,3.25232 -8.74762,3.25232c-3.41431,0 -5.96882,-0.97196 -7.66351,-2.91587c-0.19938,-0.19938 -0.29906,-0.42367 -0.29906,-0.67289c0,-0.24922 0.12461,-0.49844 0.37383,-0.74766l2.01868,-2.24298c0.49844,-0.49844 0.97196,-0.54828 1.42055,-0.14953c0.94704,0.94704 2.31775,1.42055 4.11213,1.42055c1.79438,0 3.35201,-0.63551 4.67287,-1.90653c1.32087,-1.27102 2.15575,-3.12771 2.50466,-5.57007l5.08409,-36.48581zM230.48607,218.97211c0,0 0.29283,0 0.8785,0c0.58567,0 1.22741,0.36137 1.92522,1.08411c0.69782,0.72274 1.04672,1.65731 1.04672,2.80372c0,1.14641 -0.49844,2.18067 -1.49532,3.10279c-0.99688,0.92211 -2.06853,1.38317 -3.21494,1.38317c-1.14641,0 -2.05606,-0.34891 -2.72896,-1.04672c-0.67289,-0.69782 -1.00934,-1.61993 -1.00934,-2.76634c0,-1.14641 0.47352,-2.19314 1.42055,-3.14017c0.94704,-0.94704 2.00622,-1.42055 3.17755,-1.42055" data-paper-data="{&quot;elementType&quot;:&quot;letter&quot;,&quot;baseline&quot;:65.7,&quot;baselineProportion&quot;:0.7373737373737373,&quot;fontSize&quot;:100}"></path><path d="M248.91589,268.09337h-14.28031c-0.64797,0 -0.92211,-0.29906 -0.82243,-0.89719l0.52336,-3.21494c0.04984,-0.59813 0.37383,-0.89719 0.97196,-0.89719h4.1869l3.81307,-26.76623h-4.1869c-0.64797,0 -0.92211,-0.29906 -0.82243,-0.89719l0.4486,-3.21494c0.09969,-0.59813 0.4486,-0.89719 1.04672,-0.89719h9.42052c0.59813,0 0.87227,0.29906 0.82243,0.89719l-4.33643,30.87836h3.9626c0.59813,0 0.87227,0.29906 0.82243,0.89719l-0.4486,3.21494c-0.04984,0.59813 -0.42367,0.89719 -1.12149,0.89719M248.50468,218.97211c0,0 0.29283,0 0.8785,0c0.58567,0 1.22741,0.36137 1.92522,1.08411c0.69782,0.72274 1.04672,1.65731 1.04672,2.80372c0,1.14641 -0.49844,2.18067 -1.49532,3.10279c-0.99688,0.92211 -2.06853,1.38317 -3.21494,1.38317c-1.14641,0 -2.05606,-0.34891 -2.72896,-1.04672c-0.67289,-0.69782 -1.00934,-1.61993 -1.00934,-2.76634c0,-1.14641 0.47352,-2.19314 1.42055,-3.14017c0.94704,-0.94704 2.00622,-1.42055 3.17755,-1.42055z" data-paper-data="{&quot;elementType&quot;:&quot;letter&quot;,&quot;baseline&quot;:65.7,&quot;baselineProportion&quot;:1,&quot;fontSize&quot;:100}"></path><path d="M292.28017,268.09337h-6.50464c-1.89407,0 -2.84111,-0.77258 -2.84111,-2.31775c0,-0.24922 0.02492,-0.52336 0.07477,-0.82243l0.52336,-3.81307h-0.14953c-4.23674,5.03424 -9.44544,7.55137 -15.62609,7.55137c-3.23986,0 -5.86913,-0.82243 -7.88781,-2.46728c-2.01868,-1.64485 -3.02802,-3.86291 -3.02802,-6.65417c0,-4.48596 1.95638,-7.80059 5.86913,-9.94388c3.91275,-2.14329 9.2336,-3.21494 15.96254,-3.21494h6.28034l0.14953,-0.89719c0.14953,-0.7975 0.2243,-1.57009 0.2243,-2.31775c0,-4.68534 -2.89095,-7.028 -8.67286,-7.028c-3.04048,0 -5.271,0.2866 -6.69156,0.85981c-1.42055,0.57321 -2.44236,1.03426 -3.06541,1.38317c-0.62305,0.34891 -1.09657,0.63551 -1.42055,0.85981c-0.32399,0.2243 -0.5109,0.33645 -0.56074,0.33645c-0.54828,0.19938 -0.92211,0.12461 -1.12149,-0.2243l-1.71962,-2.61681c-0.24922,-0.39875 -0.14953,-0.80996 0.29906,-1.23364c0.4486,-0.42367 1.08411,-0.92211 1.90653,-1.49532c0.82243,-0.57321 2.50466,-1.25856 5.0467,-2.05606c2.54204,-0.7975 5.30839,-1.19626 8.29903,-1.19626c9.27098,0 13.90648,3.86291 13.90648,11.58873c0,1.04672 -0.09969,2.16821 -0.29906,3.36447l-2.46728,17.34571h4.26166c0.54828,0 0.7975,0.29906 0.74766,0.89719l-0.4486,3.21494c-0.04984,0.59813 -0.39875,0.89719 -1.04672,0.89719M278.3737,250.89719c-4.58565,0 -7.85043,0.33645 -9.79435,1.00934c-1.94392,0.67289 -3.2897,1.49532 -4.03736,2.46728c-0.74766,0.97196 -1.12149,2.21806 -1.12149,3.7383c0,1.52024 0.62305,2.7788 1.86915,3.77568c1.2461,0.99688 2.9408,1.49532 5.08409,1.49532c4.88471,0 9.24606,-2.14329 13.08405,-6.42988l0.82243,-6.05605z" data-paper-data="{&quot;elementType&quot;:&quot;letter&quot;,&quot;baseline&quot;:49.900000000000006,&quot;baselineProportion&quot;:0.9842209072978304,&quot;fontSize&quot;:100}"></path><path d="M325.47628,251.49532h-23.25223c-0.64797,0 -0.92211,-0.32399 -0.82243,-0.97196l0.52336,-3.81307c0.09969,-0.64797 0.47352,-0.97196 1.12149,-0.97196h23.25223c0.69782,0 0.99688,0.32399 0.89719,0.97196l-0.52336,3.81307c-0.09969,0.64797 -0.49844,0.97196 -1.19626,0.97196z" data-paper-data="{&quot;elementType&quot;:&quot;letter&quot;,&quot;baseline&quot;:29.900000000000006,&quot;baselineProportion&quot;:3.8831168831168825,&quot;fontSize&quot;:100}"></path><path d="M345.13973,268.09337h-14.28031c-0.64797,0 -0.92211,-0.29906 -0.82243,-0.89719l0.52336,-3.21494c0.04984,-0.59813 0.37383,-0.89719 0.97196,-0.89719h4.1869l6.20558,-43.66334h-4.1869c-0.69782,0 -0.97196,-0.29906 -0.82243,-0.89719l0.4486,-3.21494c0.09969,-0.59813 0.4486,-0.89719 1.04672,-0.89719h8.29903c1.2461,0 1.86915,0.47352 1.86915,1.42055c0,0.14953 -0.02492,0.29906 -0.07477,0.4486l-6.57941,46.80352h3.9626c0.59813,0 0.87227,0.29906 0.82243,0.89719l-0.4486,3.21494c-0.04984,0.59813 -0.42367,0.89719 -1.12149,0.89719z" data-paper-data="{&quot;elementType&quot;:&quot;letter&quot;,&quot;baseline&quot;:71.8,&quot;baselineProportion&quot;:1,&quot;fontSize&quot;:100}"></path><path d="M388.13018,268.09337h-6.50464c-1.89407,0 -2.84111,-0.77258 -2.84111,-2.31775c0,-0.24922 0.02492,-0.52336 0.07477,-0.82243l0.52336,-3.81307h-0.14953c-4.23674,5.03424 -9.44544,7.55137 -15.62609,7.55137c-3.23986,0 -5.86913,-0.82243 -7.88781,-2.46728c-2.01868,-1.64485 -3.02802,-3.86291 -3.02802,-6.65417c0,-4.48596 1.95638,-7.80059 5.86913,-9.94388c3.91275,-2.14329 9.2336,-3.21494 15.96254,-3.21494h6.28034l0.14953,-0.89719c0.14953,-0.7975 0.2243,-1.57009 0.2243,-2.31775c0,-4.68534 -2.89095,-7.028 -8.67286,-7.028c-3.04048,0 -5.271,0.2866 -6.69156,0.85981c-1.42055,0.57321 -2.44236,1.03426 -3.06541,1.38317c-0.62305,0.34891 -1.09657,0.63551 -1.42055,0.85981c-0.32399,0.2243 -0.5109,0.33645 -0.56074,0.33645c-0.54828,0.19938 -0.92211,0.12461 -1.12149,-0.2243l-1.71962,-2.61681c-0.24922,-0.39875 -0.14953,-0.80996 0.29906,-1.23364c0.4486,-0.42367 1.08411,-0.92211 1.90653,-1.49532c0.82243,-0.57321 2.50466,-1.25856 5.0467,-2.05606c2.54204,-0.7975 5.30839,-1.19626 8.29903,-1.19626c9.27098,0 13.90648,3.86291 13.90648,11.58873c0,1.04672 -0.09969,2.16821 -0.29906,3.36447l-2.46728,17.34571h4.26166c0.54828,0 0.7975,0.29906 0.74766,0.89719l-0.4486,3.21494c-0.04984,0.59813 -0.39875,0.89719 -1.04672,0.89719M374.22371,250.89719c-4.58565,0 -7.85043,0.33645 -9.79435,1.00934c-1.94392,0.67289 -3.2897,1.49532 -4.03736,2.46728c-0.74766,0.97196 -1.12149,2.21806 -1.12149,3.7383c0,1.52024 0.62305,2.7788 1.86915,3.77568c1.2461,0.99688 2.9408,1.49532 5.08409,1.49532c4.88471,0 9.24606,-2.14329 13.08405,-6.42988l0.82243,-6.05605z" data-paper-data="{&quot;elementType&quot;:&quot;letter&quot;,&quot;baseline&quot;:49.900000000000006,&quot;baselineProportion&quot;:0.9842209072978304,&quot;fontSize&quot;:100}"></path><path d="M410.03662,268.09337h-14.28031c-0.64797,0 -0.92211,-0.29906 -0.82243,-0.89719l0.52336,-3.21494c0.04984,-0.59813 0.37383,-0.89719 0.97196,-0.89719h4.1869l3.81307,-26.76623h-4.1869c-0.64797,0 -0.92211,-0.29906 -0.82243,-0.89719l0.4486,-3.21494c0.09969,-0.59813 0.4486,-0.89719 1.04672,-0.89719h9.42052c0.59813,0 0.87227,0.29906 0.82243,0.89719l-4.33643,30.87836h3.9626c0.59813,0 0.87227,0.29906 0.82243,0.89719l-0.4486,3.21494c-0.04984,0.59813 -0.42367,0.89719 -1.12149,0.89719M409.62541,218.97211c0,0 0.29283,0 0.8785,0c0.58567,0 1.22741,0.36137 1.92522,1.08411c0.69782,0.72274 1.04672,1.65731 1.04672,2.80372c0,1.14641 -0.49844,2.18067 -1.49532,3.10279c-0.99688,0.92211 -2.06853,1.38317 -3.21494,1.38317c-1.14641,0 -2.05606,-0.34891 -2.72896,-1.04672c-0.67289,-0.69782 -1.00934,-1.61993 -1.00934,-2.76634c0,-1.14641 0.47352,-2.19314 1.42055,-3.14017c0.94704,-0.94704 2.00622,-1.42055 3.17755,-1.42055z" data-paper-data="{&quot;elementType&quot;:&quot;letter&quot;,&quot;baseline&quot;:65.7,&quot;baselineProportion&quot;:1,&quot;fontSize&quot;:100}"></path></g></g></g></g></g></svg>